<?xml version="1.0" encoding="UTF-8"?>
<svg version="1.1" xmlns="http://www.w3.org/2000/svg" width="225" height="225">
<path d="M0 0 C8.38885712 6.17235175 11.25777329 14.36209 13.0625 24.3125 C13.42343729 28.60420307 13.43449444 32.85930162 13.3984375 37.1640625 C13.41094175 39.58594022 13.42397849 42.00781524 13.4375 44.4296875 C13.44143323 48.19280564 13.43742966 51.95565695 13.42285156 55.71875 C13.41425078 59.38841649 13.4360009 63.05699214 13.4609375 66.7265625 C13.44759369 67.84036285 13.43424988 68.95416321 13.42050171 70.10171509 C13.49938087 78.50956404 15.53692426 84.77189623 20.71884155 91.44570923 C22.0625 93.3125 22.0625 93.3125 22.2109375 95.64453125 C20.41125944 99.825416 17.15528178 102.15422741 13.6875 105 C13.00171875 105.58072266 12.3159375 106.16144531 11.609375 106.75976562 C3.77290456 113.35368287 3.77290456 113.35368287 0.63671875 113.171875 C-2.42299126 112.15042401 -3.88532419 110.86715673 -6.125 108.5625 C-6.79917969 107.88703125 -7.47335938 107.2115625 -8.16796875 106.515625 C-10.02834046 104.19940061 -10.98345992 102.11101758 -11.9375 99.3125 C-12.75992188 99.98796875 -13.58234375 100.6634375 -14.4296875 101.359375 C-26.04611201 110.72847556 -35.83316731 114.66859429 -50.9375 114.3125 C-60.39483748 113.18714176 -66.55295002 109.69704998 -73.1875 103.0625 C-78.99508701 93.93629185 -81.05795411 83.89518961 -79.3125 73.1875 C-76.72778844 62.39763025 -70.91119246 53.59807563 -61.48828125 47.69140625 C-48.83387092 40.8506607 -32.1938633 38.61136738 -17.9375 39.3125 C-18.02495575 36.91500616 -18.13187075 34.52101779 -18.25 32.125 C-18.28383789 31.11469727 -18.28383789 31.11469727 -18.31835938 30.08398438 C-18.55293233 25.7123975 -19.18775467 22.7544009 -21.9375 19.3125 C-26.57379608 16.02928604 -32.53178794 16.76756935 -37.9375 17.3125 C-44.61102184 19.90775849 -46.95939596 26.18732149 -49.9375 32.3125 C-52.6252438 32.17040331 -55.31263302 32.0239277 -58 31.875 C-59.12825195 31.81602539 -59.12825195 31.81602539 -60.27929688 31.75585938 C-73.22254874 31.02745126 -73.22254874 31.02745126 -75.9375 28.3125 C-75.9375 19.55206515 -72.67660948 12.58887958 -66.92578125 6.01171875 C-49.8947171 -10.22435857 -19.86832541 -11.75078883 0 0 Z M-44.1875 64.3125 C-48.47766227 69.74953733 -48.53143443 75.59891977 -47.9375 82.3125 C-46.42487963 86.47220601 -44.89737966 89.22256351 -40.9375 91.3125 C-35.29230915 92.80368249 -32.01634694 92.13408164 -26.9375 89.3125 C-21.55655491 85.05779923 -18.47166784 79.87551093 -17.671875 73.04345703 C-17.22626784 67.47229632 -17.05116507 61.89913822 -16.9375 56.3125 C-26.72472624 55.67095926 -37.25211079 56.67929955 -44.1875 64.3125 Z " fill="#0C0E0E" transform="translate(142.9375,37.6875)"/>
<path d="M0 0 C3.59772666 1.27813974 6.6887789 2.97569779 9.90722656 5.02050781 C37.09352473 22.23705594 70.42916359 28.68344538 102.01025391 21.8449707 C109.95303919 19.94723031 117.469431 17.12243105 125 14 C126.99947931 13.20701916 128.99940128 12.41515244 131 11.625 C132.33409714 11.08521728 133.66778619 10.5444143 135 10 C135.99 10.99 135.99 10.99 137 12 C136.68615955 15.43132223 135.34625694 17.02418366 132.8125 19.25 C114.24291663 34.65318904 89.59767597 41.56335333 65.73046875 39.65698242 C44.71757532 37.46651498 25.51984042 28.21265631 10 14 C9.04480469 13.12601563 8.08960938 12.25203125 7.10546875 11.3515625 C1.90004004 6.38638435 1.90004004 6.38638435 0 4 C0 2.68 0 1.36 0 0 Z " fill="#F89E29" transform="translate(38,152)"/>
<path d="M0 0 C0.52335937 0.32226562 1.04671875 0.64453125 1.5859375 0.9765625 C2.33215087 9.93112295 -0.18934883 17.43149363 -5.3984375 24.7734375 C-7.4140625 26.9765625 -7.4140625 26.9765625 -10.4140625 27.9765625 C-11.86253158 23.63115526 -10.03434848 21.06524885 -8.32421875 16.9609375 C-7.07373466 13.38065052 -7.07373466 13.38065052 -7.4140625 6.9765625 C-13.6840625 6.9765625 -19.9540625 6.9765625 -26.4140625 6.9765625 C-26.4140625 5.6565625 -26.4140625 4.3365625 -26.4140625 2.9765625 C-18.56226551 -1.07597788 -8.50137164 -3.60414138 0 0 Z " fill="#F8A538" transform="translate(186.4140625,152.0234375)"/>
</svg>
