<?xml version="1.0" standalone="no"?>
<!DOCTYPE svg PUBLIC "-//W3C//DTD SVG 20010904//EN"
 "http://www.w3.org/TR/2001/REC-SVG-20010904/DTD/svg10.dtd">
<svg version="1.0" xmlns="http://www.w3.org/2000/svg"
 width="204.000000pt" height="192.000000pt" viewBox="0 0 204.000000 192.000000"
 preserveAspectRatio="xMidYMid meet">

<g transform="translate(0.000000,192.000000) scale(0.100000,-0.100000)"
fill="#000000" stroke="none">
<path d="M681 1889 c-29 -17 -72 -50 -95 -74 -54 -55 -108 -161 -114 -225 -4
-45 -2 -50 19 -59 40 -17 279 -39 294 -27 7 6 19 31 25 56 16 58 71 114 130
130 62 17 154 9 187 -16 57 -43 68 -68 71 -173 l4 -97 -119 -13 c-199 -21
-310 -46 -399 -91 -220 -108 -308 -330 -234 -592 26 -92 132 -193 234 -223 65
-20 225 -19 301 0 68 18 153 67 222 129 l49 44 24 -36 c14 -21 47 -61 74 -89
70 -75 82 -73 203 33 121 106 134 120 126 142 -4 9 -26 45 -49 79 -25 36 -47
83 -53 113 -7 31 -11 177 -11 374 0 178 -4 347 -10 375 -19 104 -75 188 -159
242 l-45 29 -310 0 -311 0 -54 -31z m518 -822 c-4 -115 -6 -127 -37 -189 -37
-75 -87 -123 -146 -139 -79 -21 -163 17 -192 88 -17 38 -18 160 -3 200 13 35
74 99 114 121 42 23 129 40 204 41 l63 1 -3 -123z"/>
</g>
</svg>
