    <?xml version="1.0" encoding="UTF-8"?>
<svg version="1.1" xmlns="http://www.w3.org/2000/svg" width="259" height="194">
<path d="M0 0 C85.47 0 170.94 0 259 0 C259 64.02 259 128.04 259 194 C173.53 194 88.06 194 0 194 C0 129.98 0 65.96 0 0 Z " fill="#807C76" transform="translate(0,0)"/>
<path d="M0 0 C85.47 0 170.94 0 259 0 C259 15.51 259 31.02 259 47 C173.53 47 88.06 47 0 47 C0 31.49 0 15.98 0 0 Z " fill="#6A6C6D" transform="translate(0,0)"/>
<path d="M0 0 C85.47 0 170.94 0 259 0 C259 2.97 259 5.94 259 9 C173.53 9 88.06 9 0 9 C0 6.03 0 3.06 0 0 Z " fill="#646567" transform="translate(0,28)"/>
<path d="M0 0 C85.47 0 170.94 0 259 0 C259 2.97 259 5.94 259 9 C173.53 9 88.06 9 0 9 C0 6.03 0 3.06 0 0 Z " fill="#67686A" transform="translate(0,19)"/>
<path d="M0 0 C85.47 0 170.94 0 259 0 C259 1.65 259 3.3 259 5 C233.08343975 5.20294257 207.16677747 5.38952122 181.25 5.5625 C180.29654993 5.56888284 179.34309985 5.57526568 178.36075735 5.58184195 C130.75836915 5.89961383 83.16364263 6.20068567 35.5625 5.5625 C34.60533585 5.54968616 33.64817169 5.53687233 32.66200256 5.5236702 C21.77417928 5.37567129 10.88690196 5.20539737 0 5 C0 3.35 0 1.7 0 0 Z " fill="#535556" transform="translate(0,14)"/>
<path d="M0 0 C85.47 0 170.94 0 259 0 C259 1.65 259 3.3 259 5 C232.8959382 5.2028226 206.7917759 5.38942495 180.6875 5.5625 C179.72766708 5.56888284 178.76783417 5.57526568 177.77891541 5.58184195 C130.18319987 5.89746234 82.59439082 6.2092663 35 5.5625 C34.05564968 5.54968616 33.11129936 5.53687233 32.13833237 5.5236702 C21.42504994 5.37603705 10.7123302 5.20599012 0 5 C0 3.35 0 1.7 0 0 Z " fill="#565758" transform="translate(0,0)"/>
<path d="M0 0 C85.47 0 170.94 0 259 0 C259 0.99 259 1.98 259 3 C173.53 3 88.06 3 0 3 C0 2.01 0 1.02 0 0 Z " fill="#969797" transform="translate(0,47)"/>
<path d="M0 0 C85.47 0 170.94 0 259 0 C259 0.99 259 1.98 259 3 C173.53 3 88.06 3 0 3 C0 2.01 0 1.02 0 0 Z " fill="#414243" transform="translate(0,28)"/>
<path d="M0 0 C85.47 0 170.94 0 259 0 C259 0.99 259 1.98 259 3 C173.53 3 88.06 3 0 3 C0 2.01 0 1.02 0 0 Z " fill="#838587" transform="translate(0,25)"/>
<path d="M0 0 C85.47 0 170.94 0 259 0 C259 0.99 259 1.98 259 3 C173.53 3 88.06 3 0 3 C0 2.01 0 1.02 0 0 Z " fill="#929394" transform="translate(0,11)"/>
<path d="M0 0 C85.47 0 170.94 0 259 0 C259 0.99 259 1.98 259 3 C244.83998105 3.02335028 230.67996508 3.0409232 216.51993084 3.05181217 C209.94532797 3.05703752 203.37073801 3.06412889 196.79614258 3.07543945 C190.45491725 3.08628064 184.11370435 3.09227947 177.77247047 3.09487724 C175.34949358 3.09672926 172.92651738 3.10034562 170.50354576 3.10573006 C167.11782722 3.11295678 163.73216052 3.11399024 160.34643555 3.11352539 C159.33799088 3.11712067 158.3295462 3.12071594 157.2905426 3.12442017 C156.36927582 3.1230455 155.44800903 3.12167084 154.49882507 3.12025452 C153.29726792 3.12163721 153.29726792 3.12163721 152.07143688 3.12304783 C150 3 150 3 147 2 C145.02149053 1.89705028 143.0396988 1.85360434 141.05854797 1.84178162 C139.81754333 1.8319928 138.5765387 1.82220398 137.29792786 1.81211853 C135.92038002 1.80621436 134.54283179 1.80040392 133.1652832 1.79467773 C131.71658041 1.78509889 130.26788041 1.77508881 128.81918335 1.76467896 C124.88355397 1.73762449 120.94791259 1.71661786 117.0122416 1.69667697 C112.90024388 1.67482077 108.78828318 1.64743029 104.67631531 1.62062073 C96.88846425 1.57068889 89.10059265 1.52575188 81.3127014 1.48259836 C72.44699619 1.43323019 63.5813281 1.3783105 54.71565878 1.32291877 C36.47714033 1.20909119 18.23858683 1.10225383 0 1 C0 0.67 0 0.34 0 0 Z " fill="#393632" transform="translate(0,50)"/>
</svg>
